<svg width="48" height="48" viewBox="0 0 48 48" fill="none" xmlns="http://www.w3.org/2000/svg">
<path d="M24.3936 12.2448C24.36 12.1718 24.3062 12.11 24.2386 12.0666C24.171 12.0233 24.0923 12.0003 24.012 12.0003C23.9316 12.0003 23.853 12.0233 23.7854 12.0666C23.7177 12.11 23.6639 12.1718 23.6304 12.2448L21.912 15.972C21.8818 16.0369 21.8355 16.093 21.7776 16.1351C21.7196 16.1771 21.6519 16.2035 21.5808 16.212L17.5032 16.6968C17.4237 16.7064 17.3486 16.7386 17.2867 16.7895C17.2249 16.8404 17.1789 16.9079 17.1542 16.9841C17.1295 17.0603 17.1271 17.142 17.1472 17.2195C17.1674 17.297 17.2093 17.3671 17.268 17.4216L20.2824 20.208C20.3354 20.2568 20.3749 20.3185 20.3971 20.387C20.4194 20.4555 20.4237 20.5286 20.4096 20.5992L19.608 24.624C19.5923 24.7027 19.5994 24.7843 19.6286 24.859C19.6579 24.9338 19.7079 24.9986 19.7727 25.0458C19.8376 25.093 19.9147 25.1207 19.9948 25.1254C20.0749 25.1302 20.1547 25.112 20.2248 25.0728L23.808 23.0688C23.8704 23.0341 23.9406 23.0159 24.012 23.0159C24.0834 23.0159 24.1536 23.0341 24.216 23.0688L27.7992 25.0728C28.1112 25.248 28.4856 24.9768 28.416 24.624L27.6168 20.5992C27.6026 20.5286 27.6069 20.4555 27.6292 20.387C27.6515 20.3185 27.691 20.2568 27.744 20.208L30.756 17.4216C30.8147 17.3671 30.8566 17.297 30.8767 17.2195C30.8969 17.142 30.8945 17.0603 30.8698 16.9841C30.845 16.9079 30.7991 16.8404 30.7372 16.7895C30.6754 16.7386 30.6003 16.7064 30.5208 16.6968L26.4456 16.212C26.3741 16.2039 26.3058 16.1776 26.2474 16.1356C26.189 16.0936 26.1424 16.0372 26.112 15.972L24.3936 12.2448ZM38.4 19.2C38.4022 21.2264 37.9757 23.2302 37.1484 25.08C36.3211 26.9298 35.1118 28.5836 33.6 29.9328V42C33.5999 42.2102 33.5447 42.4166 33.4398 42.5987C33.3348 42.7808 33.184 42.9321 33.0022 43.0376C32.8204 43.143 32.6142 43.1989 32.404 43.1996C32.1939 43.2003 31.9872 43.1458 31.8048 43.0416L24 38.5824L16.1952 43.0416C16.0127 43.1458 15.8061 43.2003 15.5959 43.1996C15.3858 43.1989 15.1795 43.143 14.9978 43.0376C14.816 42.9321 14.6651 42.7808 14.5602 42.5987C14.4553 42.4166 14.4 42.2102 14.4 42V29.9328C12.6096 28.3315 11.2483 26.3077 10.4399 24.0458C9.63155 21.7838 9.40185 19.3556 9.77173 16.9823C10.1416 14.6089 11.0993 12.3657 12.5577 10.4571C14.016 8.54842 15.9286 7.03488 18.1214 6.05428C20.3141 5.07368 22.7173 4.65718 25.1122 4.8427C27.507 5.02822 29.8174 5.80987 31.833 7.11648C33.8486 8.42308 35.5053 10.2131 36.6522 12.3236C37.7992 14.4341 38.4 16.798 38.4 19.2ZM24 33.6C21.472 33.6037 18.9881 32.9388 16.8 31.6728V39.9336L23.4048 36.1584C23.5861 36.0549 23.7912 36.0004 24 36.0004C24.2087 36.0004 24.4139 36.0549 24.5952 36.1584L31.2 39.936V31.6752C29.0117 32.9405 26.5277 33.6045 24 33.6ZM24 31.2C27.1826 31.2 30.2348 29.9357 32.4853 27.6853C34.7357 25.4349 36 22.3826 36 19.2C36 16.0174 34.7357 12.9652 32.4853 10.7147C30.2348 8.46429 27.1826 7.20001 24 7.20001C20.8174 7.20001 17.7651 8.46429 15.5147 10.7147C13.2643 12.9652 12 16.0174 12 19.2C12 22.3826 13.2643 25.4349 15.5147 27.6853C17.7651 29.9357 20.8174 31.2 24 31.2Z" fill="#EA7850"/>
</svg>
