<svg width="213" height="288" viewBox="0 0 213 288" fill="none" xmlns="http://www.w3.org/2000/svg">
<path d="M48.3955 65.331C48.3955 65.331 49.2229 37.5785 96.0464 21.7473C129.065 10.6094 175.679 24.9122 178.053 77.7552C179.542 110.481 168.958 128.618 163.293 154.275C160.499 166.712 162.173 181.098 167.819 189.351C167.819 189.351 174.495 198.425 181.61 194.121C181.61 194.121 175.392 204.291 154.822 202.17C154.822 202.17 144.779 200.514 136.365 196.56C117.456 187.676 94.0734 189.351 105.052 199.247C105.052 199.247 85.5768 197.496 72.8224 205.176C66.9161 208.716 51.4059 204.564 51.4059 204.564C51.4059 204.564 57.1658 201.922 59.5079 198.82C60.4435 197.585 62.5501 195.566 62.5501 195.566C62.5501 195.566 62.0155 198.757 53.7862 199.527C45.5824 200.298 40.0835 193.586 40.0835 193.586C40.0835 193.586 47.5681 202.24 58.1459 180.283C60.7872 174.71 61.099 169.368 57.8468 157.408C53.9199 143.016 42.8266 134.693 40.5099 110.188C38.7279 91.3321 41.4328 86.1803 48.3955 65.331Z" fill="#592A0E"/>
<path opacity="0.2" d="M75.5527 132.273C75.5527 132.273 70.4739 119.136 58.0059 128.993C58.0059 128.993 68.7682 160.191 65.6369 172.915C63.8357 179.913 54.4418 197.273 42.3683 195.496C42.3683 195.496 58.3241 201.934 71.6068 182.855C78.2322 173.373 85.6022 143.71 75.5527 132.279V132.273Z" fill="url(#paint0_linear_20_248)"/>
<path d="M167.927 93.6311C167.927 93.6311 124.585 173.297 168.684 193.025C168.684 193.025 131.656 190.631 123.745 174.895L124.585 199.342H60.7108C60.7108 199.342 100.139 183.556 59.1388 132.273C59.1388 132.273 21.2828 39.2024 107.197 27.3767C149.451 21.5626 182.902 54.1994 167.92 93.6374L167.927 93.6311Z" fill="url(#paint1_linear_20_248)"/>
<path d="M82.7828 259.891C80.2242 268.45 78.003 276.321 77.7294 283.205C78.7031 283.02 79.6705 282.823 80.6443 282.593C98.6112 278.308 116.514 273.977 134.685 270.87C130.243 261.547 123.681 253.09 121.982 247.352C118.869 236.864 128.06 215.881 139.127 203.418C139.127 203.418 156.636 192.427 145.912 178.907C142.895 175.105 135.207 176.576 127.258 171.367C121.791 167.782 118.042 160 119.958 151.709C121.651 144.353 124.336 141.812 124.336 141.812L102.869 148.372C102.869 148.372 110.315 159.376 104.944 168.444C102.003 173.411 88.3071 173.564 82.7828 177.875C76.2083 183.008 76.4055 192.032 79.766 202.858C84.6475 218.568 91.8267 229.629 82.7828 259.897V259.891Z" fill="url(#paint2_radial_20_248)"/>
<path d="M148.751 99.91C148.751 99.91 161.893 79.6402 167.806 93.8921C167.806 93.8921 171.86 110.271 150.374 115.264L143.023 114.2L148.744 99.91H148.751Z" fill="#FDCB95"/>
<path d="M160.799 97.0889C160.799 97.0889 151.672 102.024 152.047 108.322C152.047 108.322 158.285 108.583 159.277 104.82C159.277 104.82 158.285 101.674 157.139 101.891C157.139 101.891 162.606 96.6177 160.799 97.0889Z" fill="#E2A66A"/>
<path d="M148.235 127.058C142.023 139.374 123.935 147.302 115.706 151.218C107.012 156.236 98.6494 157.835 93.1441 155.326C86.4296 152.263 75.7691 138.737 70.512 132.197C67.1834 128.057 61.4999 120.167 61.589 111.526C61.6909 101.515 64.1221 100.515 63.8357 94.962C63.5748 89.9375 52.9588 30.7455 106.815 25.7465C143.468 25.8738 161.492 57.963 151.914 94.6754C150.781 102.738 155.586 112.494 148.241 127.058H148.235Z" fill="#FDCB95"/>
<path d="M148.948 116.716C148.305 125.236 140.012 131.56 130.427 130.834C120.842 130.108 113.6 122.613 114.242 114.086C114.885 105.559 123.178 99.2414 132.763 99.961C142.348 100.687 149.591 108.182 148.948 116.709V116.716Z" fill="url(#paint3_radial_20_248)"/>
<path d="M67.979 78.2583C67.0307 78.7423 65.9678 79.9204 65.3505 83.0217C64.2812 88.4091 65.4014 98.2352 69.8692 105.769C76.9084 117.645 91.7249 115.366 91.7249 115.366C91.7249 115.366 108.546 83.4547 75.5718 77.1311C72.6951 76.5771 70.6266 76.8955 67.9726 78.2583H67.979Z" fill="url(#paint4_linear_20_248)"/>
<path d="M82.5282 111.487C82.1145 116.932 77.373 121.008 71.9377 120.594C66.5024 120.18 62.4228 115.436 62.8365 109.997C63.2502 104.559 67.9917 100.477 73.427 100.891C78.8623 101.305 82.9419 106.049 82.5282 111.487Z" fill="url(#paint5_radial_20_248)"/>
<path d="M89.7519 117.034C89.7519 117.034 91.6803 123.421 93.3096 122.479C93.3096 122.479 97.4975 122.81 99.3495 119.46L93.3669 119.855C93.3669 119.855 90.7129 119.371 89.7519 117.028V117.034Z" fill="url(#paint6_linear_20_248)"/>
<path d="M94.6716 108.392C94.6716 108.392 93.6088 113.901 90.942 116.232C90.942 116.232 90.4011 116.951 89.771 116.989C89.771 116.989 89.1345 115.964 89.7455 114.983C90.2929 114.105 93.5451 112.927 94.6716 108.392Z" fill="#F8CFAF"/>
<path d="M141.304 109.475C141.183 111.035 139.49 112.175 137.517 112.022C135.544 111.869 134.042 110.488 134.163 108.927C134.284 107.367 135.977 106.227 137.95 106.38C139.923 106.533 141.425 107.915 141.304 109.475Z" fill="#F8CFAF"/>
<path d="M71.6195 106.329C71.524 107.577 70.2511 108.494 68.7682 108.38C67.2916 108.265 66.1651 107.17 66.2606 105.922C66.3561 104.673 67.629 103.756 69.1055 103.871C70.5821 103.986 71.7086 105.081 71.6131 106.329H71.6195Z" fill="#F8CFAF"/>
<path d="M112.308 95.1721C112.308 95.1721 118.456 81.073 133.068 87.524C133.068 87.524 137.606 91.0265 138.243 93.6374C138.243 93.6374 137.867 103.483 121.759 102.381C121.759 102.381 117.157 101.903 112.308 95.1721Z" fill="#FFF2E9"/>
<path d="M135.372 94.6309C135.328 99.2605 131.337 102.973 126.456 102.929C121.574 102.884 117.654 99.0949 117.698 94.4653C117.743 89.8356 121.733 86.123 126.615 86.1676C131.496 86.2121 135.417 90.0012 135.372 94.6309Z" fill="url(#paint7_linear_20_248)"/>
<path d="M131.999 94.3379C131.974 97.1463 129.753 99.407 127.041 99.3751C124.33 99.3497 122.153 97.0508 122.179 94.236C122.204 91.4277 124.426 89.167 127.137 89.1988C129.848 89.2243 132.025 91.5232 131.999 94.3379Z" fill="#673D17"/>
<path d="M124.763 92.765C124.75 93.975 123.789 94.9557 122.612 94.9429C121.434 94.9302 120.492 93.9367 120.499 92.7268C120.511 91.5105 121.472 90.5362 122.65 90.5489C123.827 90.5616 124.769 91.5551 124.763 92.765Z" fill="#F3EDCD"/>
<path d="M111.537 95.5224C111.537 95.5224 115.483 82.0155 126.997 80.5254C126.997 80.5254 138.116 79.6657 138.822 91.485C138.822 91.485 133.947 84.0024 124.171 86.849C114.389 89.6955 111.537 95.5224 111.537 95.5224Z" fill="#F6BB81"/>
<path d="M111.537 95.5224C111.537 95.5224 125.947 79.2326 138.243 93.6374C138.243 93.6374 141.355 93.9813 144.811 87.9188C144.811 87.9188 143.124 91.0201 138.23 90.0712C138.23 90.0712 132.177 81.366 122.141 84.843C118.659 86.3713 113.638 91.4786 111.544 95.5224H111.537Z" fill="url(#paint8_linear_20_248)"/>
<path d="M138.637 93.561C138.637 93.561 133.692 106.851 120.244 102.196C120.244 102.196 135.672 109.399 138.637 93.561Z" fill="#F6BB81"/>
<path d="M92.3868 95.9172C92.3868 95.9172 86.646 83.5885 75.0054 87.6132C75.0054 87.6132 71.2758 90.0458 70.5885 92.0645C70.5885 92.0645 70.1238 99.8846 82.49 100.203C82.49 100.203 90.5347 99.7127 92.3868 95.9109V95.9172Z" fill="#F9EFE5"/>
<path d="M91.5722 94.4398C91.5722 94.4398 90.5984 82.0283 80.167 81.2386C80.167 81.2386 70.1429 81.1749 68.3864 89.8866C68.3864 89.8866 74.5917 84.7666 81.8281 87.7405C89.0709 90.7144 91.5658 94.4398 91.5658 94.4398H91.5722Z" fill="#F4B283"/>
<path d="M77.2775 93.3827C76.9529 96.9425 79.5496 100.088 83.0819 100.413C86.6142 100.738 89.7392 98.1142 90.0638 94.5544C90.3883 90.9946 87.7853 87.8488 84.2594 87.524C80.7271 87.1992 77.6021 89.8229 77.2775 93.3827Z" fill="url(#paint9_linear_20_248)"/>
<path d="M79.9443 93.7393C79.747 95.9108 81.3317 97.8276 83.4893 98.0251C85.6405 98.2225 87.5498 96.6241 87.7471 94.4525C87.9444 92.281 86.3597 90.3642 84.2021 90.1668C82.0509 89.9693 80.1416 91.5677 79.9443 93.7393Z" fill="#673D17"/>
<path d="M79.2187 92.0072C79.1296 92.9369 79.817 93.7648 80.7398 93.8476C81.6627 93.9304 82.4837 93.2426 82.5728 92.3129C82.6619 91.3831 81.9745 90.5552 81.0517 90.4725C80.1288 90.3897 79.3078 91.0774 79.2187 92.0072Z" fill="#F3EDCD"/>
<path d="M91.884 95.032C91.884 95.032 84.6476 80.2706 70.092 92.5739C70.092 92.5739 64.154 92.5739 62.3655 86.3713C62.3655 86.3713 64.1794 89.6509 68.6918 88.7339C68.6918 88.7339 76.4501 81.3978 84.1193 85.2187C89.8728 87.8997 91.5021 93.8921 91.884 95.0257V95.032Z" fill="url(#paint10_linear_20_248)"/>
<path d="M71.0403 94.7009C71.0403 94.7009 73.4779 101.623 84.6476 99.9291C84.6476 99.9291 71.925 105.017 71.0403 94.7009Z" fill="#F4B283"/>
<path d="M94.067 145.099C94.067 145.099 102.341 145.729 105.167 143.755C105.167 143.755 100.502 149.13 94.067 145.099Z" fill="url(#paint11_linear_20_248)"/>
<path d="M118.647 79.4173C122.573 77.0866 136.989 65.4901 142.883 83.1299C142.883 83.1299 135.551 69.3875 118.647 79.4173Z" fill="#553110"/>
<path d="M91.1011 84.7411C91.1011 84.7411 78.194 69.2028 66.3751 79.3728C66.3751 79.3728 78.2894 73.8643 91.1011 84.7411Z" fill="#553110"/>
<path d="M86.3278 124.262C86.3278 124.262 95.3527 129.974 116.164 126.886C116.164 126.886 110.627 136.756 101.603 139.367C101.603 139.367 90.5857 140.131 89.2746 133.649L89.1346 130.254C89.1346 130.254 86.4615 124.975 86.3278 124.268V124.262Z" fill="#B93B4A"/>
<path d="M89.0518 125.765C89.0518 125.765 87.3525 131.515 95.3335 132.693C97.9493 133.082 102.398 132.636 104.511 132.254C109.405 131.362 113.154 129.834 116.164 126.892C116.164 126.892 101.24 131.35 89.0518 125.765Z" fill="white"/>
<path d="M93.8634 131.515C93.8634 131.515 88.6381 133.356 91.7567 135.623C94.0225 137.272 105.568 139.469 113.911 130.363C113.911 130.363 102.398 139.093 93.2906 134.381C93.2906 134.381 92.5459 133.286 93.8634 131.515Z" fill="white"/>
<path d="M85.4304 123.765C85.4304 123.765 95.7027 129.363 116.164 126.886C116.164 126.886 109.335 131.063 95.5563 129.605C95.5563 129.605 86.5251 128.382 85.4304 123.765Z" fill="#F38583"/>
<path d="M89.2236 131.942C89.2236 131.942 90.3183 135.642 96.04 136.113C96.04 136.113 109.488 136.731 116.114 126.975C116.114 126.975 109.144 143.131 94.0925 139.724C94.0925 139.724 87.7343 138.329 89.2236 131.942Z" fill="#F38583"/>
<path d="M100.712 138.176C100.673 138.66 100.298 139.03 99.8714 138.998C99.445 138.966 99.1268 138.546 99.165 138.055C99.2032 137.565 99.5787 137.202 100.005 137.234C100.432 137.266 100.75 137.686 100.712 138.176Z" fill="#F0AAA6"/>
<path d="M103.06 138.157C103.035 138.469 102.78 138.705 102.487 138.679C102.194 138.66 101.978 138.386 102.003 138.074C102.029 137.762 102.284 137.527 102.576 137.552C102.869 137.571 103.085 137.845 103.06 138.157Z" fill="#F0AAA6"/>
<path d="M27.8955 162.656C27.8955 162.656 25.7443 164.611 28.2901 167.546C30.8296 170.482 32.9807 174.195 32.9807 174.195C32.9807 174.195 25.7507 175.952 19.4944 173.609C13.2381 171.265 10.5014 169.699 6.98186 169.699C6.98186 169.699 2.29124 165.789 0.337341 168.132L1.12017 170.087C1.12017 170.087 0.337341 170.673 3.07407 173.411C5.81079 176.15 7.76469 177.914 7.76469 177.914L14.6065 181.435L10.1132 180.849C10.1132 180.849 5.42256 177.137 3.46866 179.092C3.46866 179.092 6.79092 183.002 9.52765 184.18C12.2644 185.352 22.4284 186.332 22.4284 186.332C22.4284 186.332 35.3292 188.485 36.1121 191.809C36.8949 195.133 49.5984 232.489 56.052 243.047C62.4992 253.612 73.6434 234.832 76.9657 220.95C76.9657 220.95 87.3907 191.955 87.6389 191.42C93.2905 179.257 87.6389 167.661 74.9163 182.085C72.9051 184.365 70.9003 191.414 70.9003 191.414L63.3711 220.625L43.9277 185.938L42.362 179.289C42.362 179.289 42.9475 176.353 38.4542 172.246C33.9609 168.139 27.8955 162.662 27.8955 162.662V162.656Z" fill="#FDCB95"/>
<path d="M14.6065 181.429C14.6065 181.429 17.3432 182.263 21.8684 181.977C24.6433 181.805 29.9704 180.372 33.6427 182.072C33.6427 182.072 29.8749 179.62 23.9623 181.155C18.4443 182.581 14.6065 181.429 14.6065 181.429Z" fill="#ECB782"/>
<path d="M1.12015 170.087C1.12015 170.087 1.98572 169.559 3.96507 170.972C5.94443 172.386 8.27382 174.507 8.27382 174.507C8.27382 174.507 13.1872 176.449 15.7266 177.723L19.3162 179.149L17.8078 178.111L16.0767 177.366C16.0767 177.366 10.5268 174.609 8.40748 174.328C8.40748 174.328 3.42409 168.699 1.10742 170.081L1.12015 170.087Z" fill="#ECB782"/>
<path d="M6.98183 169.692L10.5332 172.386L18.1642 175.92L20.169 176.322L10.6732 172.106C10.6732 172.106 8.36928 170.469 6.97546 169.692H6.98183Z" fill="#ECB782"/>
<path d="M134.068 174.838C134.068 174.838 146.981 171.807 152.747 186.937C158.507 202.068 167.278 227.305 167.278 227.305C167.278 227.305 176.952 246.11 162.593 246.906C162.593 246.906 158.215 248.473 153.613 236.45C149.012 224.427 133.221 191.726 133.221 191.726C133.221 191.726 124.718 181.626 134.074 174.851L134.068 174.838Z" fill="#FDCB95"/>
<path d="M196.452 170.106C196.452 170.106 182.253 168.132 179.739 170.444C179.739 170.444 174.457 174.035 176.563 177.009C178.67 179.983 187.077 175.385 187.077 175.385C187.077 175.385 202.117 173.233 196.446 170.106H196.452Z" fill="#E5AB70"/>
<path d="M162.173 247.333C162.173 247.333 173.782 245.97 175.284 231.438C176.78 216.906 180.248 182.607 180.248 182.607C180.248 182.607 180.516 174.978 174.062 178.716C174.062 178.716 164.165 211.55 162.071 218.931C159.978 226.312 157.069 240.156 162.173 247.333Z" fill="url(#paint12_radial_20_248)"/>
<path d="M173.247 181.785C173.247 181.785 173.674 170.648 184.093 171.883L191.755 171.807C191.755 171.807 192.557 169.979 192.328 169.253C192.328 169.253 189.814 171.182 188.643 171.386C186.314 171.787 184.073 169.641 193.245 164.674C193.245 164.674 196.401 163.592 197.547 165.018C199.24 167.139 199.806 169.966 199.806 169.966C199.806 169.966 202.352 169.259 203.059 164.878C203.059 164.878 203.625 162.617 203.905 160.35C204.242 157.644 206.305 157.236 206.731 158.51C210.429 169.616 202.339 174.093 199.1 175.761C195.854 177.43 191.367 177.43 186.721 178.417C182.069 179.404 180.236 182.41 180.236 182.41C180.236 182.41 173.489 187.37 173.254 181.792L173.247 181.785Z" fill="#FDCB95"/>
<path d="M191.851 165.534C191.851 165.534 196.357 163.006 197.547 165.158C198.737 167.311 199.526 170.246 199.526 170.246C199.526 170.246 198.909 173.201 197.98 174.182C197.98 174.182 201.035 171.915 199.526 167.986C198.018 164.056 196.147 162.324 191.851 165.534Z" fill="#ECB782"/>
<path d="M188.185 168.24C188.185 168.24 193.811 164.77 194.836 166.935C195.86 169.1 195.561 171.66 195.561 171.66C195.561 171.66 197.172 166.591 194.218 165.636C194.218 165.636 190.19 165.973 188.179 168.24H188.185Z" fill="#ECB782"/>
<path d="M127.213 169.718C127.213 169.718 124.527 191.306 111.716 192.064C98.904 192.815 99.5595 170.144 99.5595 170.144C80.6189 176.226 76.2401 175.379 74.5472 179.334C70.1302 189.637 62.7792 219.657 62.7792 219.657L72.5678 235.526L81.2362 210.257C81.2362 210.257 91.0375 229.114 83.4956 250.23C78.7477 263.527 75.801 275.773 74.2608 283.026C84.4312 286.255 95.2635 288 106.503 288C119.035 288 131.051 285.828 142.221 281.855C138.427 272.907 132.305 265.711 124.203 250.23C115.91 234.393 138.523 206.488 138.523 206.488L155.484 240.806C155.484 240.806 155.414 236.163 158.686 227.038C161.32 219.682 163.096 214.874 163.096 214.874C163.096 214.874 156.833 196.534 152.843 179.9C152.003 176.398 127.213 169.718 127.213 169.718Z" fill="#27273D"/>
<path d="M100.158 181.843C100.158 181.843 99.9159 188.657 102.385 195.171C104.365 200.406 106.204 206.908 106.204 206.908L117.654 195.598C117.654 195.598 121.612 191.07 122.319 187.256C123.242 182.289 124.578 176.322 124.578 176.322L117.654 174.959L110.163 189.809L108.126 174.819L101.755 175.322L100.164 181.855L100.158 181.843Z" fill="#D682AC"/>
<path d="M106.866 159.783L106.904 160.917C106.904 160.917 101.074 164.451 100.368 166.432C99.5341 168.756 103.76 171.807 108.992 175.768L99.5214 192.312L95.5627 171.1C95.5627 171.1 98.6367 165.948 100.12 164.451C101.634 162.923 106.866 159.783 106.866 159.783Z" fill="#D682AC"/>
<path d="M119.875 160.14L120.085 161.204C120.085 161.204 125.457 163.604 127.576 165.731C127.907 166.062 128.855 166.973 128.709 167.425C127.436 171.386 117.826 176.615 117.826 176.615L124.324 191.395L132.311 172.233C132.311 172.233 131.751 168.068 128.282 165.095C126.8 163.821 125.667 162.834 119.875 160.146V160.14Z" fill="#D682AC"/>
<path d="M108.89 175.761L101.068 189.472L101.399 191.178L109.304 181.378L108.89 175.761Z" fill="#AA6385"/>
<path d="M118.131 175.933L115.872 180.283L122.796 187.988L123.013 186.823L118.131 175.933Z" fill="#AA6385"/>
<path d="M85.004 245.518C85.004 245.518 90.9102 249.428 102.742 248.912C117.297 248.275 122.669 244.951 122.669 244.951L123.165 247.639C123.165 247.639 111.716 252.657 96.5237 251.243C87.6071 250.415 84.0621 248.721 84.0621 248.721L85.004 245.518Z" fill="#E6E7E8"/>
<path d="M115.579 188.255C115.579 189.013 115.032 189.625 114.351 189.625C113.67 189.625 113.129 189.013 113.129 188.255C113.129 187.498 113.676 186.893 114.351 186.893C115.025 186.893 115.579 187.504 115.579 188.255Z" fill="#AA6385"/>
<path d="M159.341 225.153C159.341 225.153 154.014 241.863 159.908 245.798C163.3 248.059 171.822 245.168 175.138 233.966L172.344 245.238C172.344 245.238 161.04 249.766 156.515 245.805C151.99 241.844 147.751 235.622 159.341 225.159V225.153Z" fill="#D682AC"/>
<path d="M62.7792 219.657C62.7792 219.657 68.6091 240.99 62.391 244.951C62.391 244.951 56.1729 244.384 53.9135 238.73C53.9135 238.73 57.8722 252.873 68.049 243.257C68.049 243.257 75.9664 239.296 71.4413 230.247C71.4413 230.247 63.1738 216.422 62.7856 219.657H62.7792Z" fill="#D682AC"/>
<path d="M98.3949 248.422L104.632 248.721L104.772 251.969L97.9748 251.835L98.3949 248.422Z" fill="#BBBDBF"/>
<path d="M98.7894 248.779L98.4394 251.67L100.19 251.689L100.393 248.9L98.7894 248.779Z" fill="#D0D2D3"/>
<path d="M100.966 248.925L100.705 251.721L104.346 251.848L104.269 248.97L100.966 248.925Z" fill="#D0D2D3"/>
<path d="M100.966 248.925L103.092 249.021L102.36 251.791L100.705 251.721L100.966 248.925Z" fill="#F1F1F2"/>
<path d="M99.6868 248.836L99.1968 251.689L98.4394 251.67L98.7894 248.779L99.6868 248.836Z" fill="#F1F1F2"/>
<path d="M106.885 160.917C106.885 160.917 107.184 168.909 102.557 170.628C102.557 170.628 99.2795 167.941 100.552 165.961C101.825 163.98 106.58 161.095 106.885 160.911V160.917Z" fill="#AA6385"/>
<path d="M120.079 161.184C120.079 161.184 126.074 163.617 128.091 166.304C128.091 166.304 129.046 167.011 128.518 167.896C127.99 168.782 127.773 169.31 126.29 170.692C126.29 170.692 122.567 168.934 120.079 161.191V161.184Z" fill="#AA6385"/>
<path d="M63.0911 71.9538C63.0911 71.9538 64.2176 72.476 87.0152 68.6424C118.615 63.3314 132.235 46.7105 132.235 46.7105C132.235 46.7105 134.208 75.8448 158.711 79.8376L139.344 32.9552H126.176L62.4865 66.8338L63.0911 71.9538Z" fill="#DFA877"/>
<path d="M57.0639 71.9156C57.0639 71.9156 39.8289 75.4691 40.7326 97.955C40.7326 97.955 36.2966 83.8496 37.5504 73.2593C38.416 65.6876 38.5369 56.4283 48.4273 42.4183C59.0369 27.3322 68.7809 20.7984 81.8026 11.953C99.2986 0.114642 139.904 -8.30407 149.463 13.6215C149.463 13.6215 158.087 14.3475 170.231 33.8723C180.828 50.9517 180.554 79.5956 173.655 85.8937C173.655 85.8937 176.589 100.986 170.95 114.812C170.95 114.812 176.258 102.489 166.017 88.6639L162.491 77.5196L149.304 63.2167C149.304 63.2167 146.358 59.8607 143.544 55.3266C143.544 55.3266 133.037 49.245 133.934 37.3047C133.934 37.3047 130.122 45.3158 115.897 53.1296C102.029 60.7395 105.949 59.6378 57.0703 71.9093L57.0639 71.9156Z" fill="url(#paint13_linear_20_248)"/>
<path d="M133.928 37.2346C133.928 37.2346 123.178 54.97 66.2542 62.8028C30.7977 67.6872 40.4781 97.1845 40.7326 97.4965C40.7326 97.4965 40.1217 78.0546 58.8078 73.1001C75.8455 68.5851 122.854 57.7147 133.928 37.2346Z" fill="#81431D"/>
<path d="M133.864 39.5272C133.864 39.5272 134.501 65.6876 153.148 79.3155C160.048 84.3336 167.437 87.8934 167.844 92.332C167.844 92.332 170.243 80.3471 151.443 63.9746C151.443 63.9746 138.026 51.2128 133.928 37.4512L133.864 39.5208V39.5272Z" fill="#592A0E"/>
<path opacity="0.4" d="M148.426 16.812C148.426 16.812 146.65 8.19585 133.081 6.61655C133.081 6.61655 145.772 10.2782 145.206 17.7481C145.206 17.7481 138.026 13.2522 134.068 18.4932C134.068 18.4932 151.303 13.9527 152.773 31.0703C152.773 31.0703 153.779 24.3328 149.33 20.4355C149.33 20.4355 154.701 17.2832 160.544 23.6577C160.544 23.6577 155.968 16.5891 148.426 16.8056V16.812Z" fill="#592A0E"/>
<path d="M69.9138 47.9586C69.9138 47.9586 38.5687 48.035 37.4104 78.2774C37.4104 78.2774 45.8942 57.2052 69.9138 47.9586Z" fill="#B06F29"/>
<path d="M89.2745 7.89017C89.2745 7.89017 105.383 35.5598 133.539 37.3684C133.539 37.3684 128.48 42.9023 121.778 46.9079C116.521 50.0792 109.342 51.875 108.883 52.1043C108.883 52.1043 63.2756 54.0084 55.9183 34.2862L64.3958 26.2305C64.3958 26.2305 81.6499 11.0742 89.2809 7.89653L89.2745 7.89017Z" fill="url(#paint14_linear_20_248)"/>
<path d="M133.864 37.3811C133.864 37.3811 156.961 44.4689 171.599 36.7316C171.599 36.7316 178.224 49.678 178.384 67.0504C178.384 67.0504 174.049 68.1139 156.846 59.9435C156.846 59.9435 141.839 51.7795 133.864 37.3748V37.3811Z" fill="url(#paint15_linear_20_248)"/>
<defs>
<linearGradient id="paint0_linear_20_248" x1="42.3683" y1="160.93" x2="80.4852" y2="160.93" gradientUnits="userSpaceOnUse">
<stop stop-color="#A85E20"/>
<stop offset="0.95" stop-color="#592A0E"/>
</linearGradient>
<linearGradient id="paint1_linear_20_248" x1="112.721" y1="10.603" x2="109.083" y2="180.162" gradientUnits="userSpaceOnUse">
<stop offset="0.41" stop-color="#3E1C13"/>
<stop offset="1" stop-color="#592A0E"/>
</linearGradient>
<radialGradient id="paint2_radial_20_248" cx="0" cy="0" r="1" gradientUnits="userSpaceOnUse" gradientTransform="translate(107.502 142.067) scale(28.2837 28.3001)">
<stop stop-color="#F3AC88"/>
<stop offset="1" stop-color="#FDCB95"/>
</radialGradient>
<radialGradient id="paint3_radial_20_248" cx="0" cy="0" r="1" gradientUnits="userSpaceOnUse" gradientTransform="translate(131.54 115.885) rotate(4.32249) scale(15.4081 15.4169)">
<stop stop-color="#F3AC88"/>
<stop offset="1" stop-color="#FDCB95"/>
</radialGradient>
<linearGradient id="paint4_linear_20_248" x1="78.2672" y1="98.5024" x2="101.766" y2="70.2623" gradientUnits="userSpaceOnUse">
<stop stop-color="#FDCB95"/>
<stop offset="1" stop-color="#F19B82"/>
</linearGradient>
<radialGradient id="paint5_radial_20_248" cx="0" cy="0" r="1" gradientUnits="userSpaceOnUse" gradientTransform="translate(72.7582 110.979) rotate(4.3325) scale(9.3665 10.5273)">
<stop stop-color="#F3AC88"/>
<stop offset="1" stop-color="#FDCB95"/>
</radialGradient>
<linearGradient id="paint6_linear_20_248" x1="92.5987" y1="122.225" x2="95.4972" y2="116.334" gradientUnits="userSpaceOnUse">
<stop stop-color="#FDCB95"/>
<stop offset="0.17" stop-color="#F5BA8D"/>
</linearGradient>
<linearGradient id="paint7_linear_20_248" x1="123.725" y1="105.494" x2="129.474" y2="83.0022" gradientUnits="userSpaceOnUse">
<stop offset="0.3" stop-color="#E6AF22"/>
<stop offset="0.82" stop-color="#BB7F2B"/>
</linearGradient>
<linearGradient id="paint8_linear_20_248" x1="111.18" y1="89.7334" x2="144.276" y2="89.9124" gradientUnits="userSpaceOnUse">
<stop offset="0.36" stop-color="#3B2314"/>
<stop offset="0.77" stop-color="#050000"/>
</linearGradient>
<linearGradient id="paint9_linear_20_248" x1="84.5716" y1="103.093" x2="81.5886" y2="85.383" gradientUnits="userSpaceOnUse">
<stop offset="0.3" stop-color="#E6AF22"/>
<stop offset="0.82" stop-color="#BB7F2B"/>
</linearGradient>
<linearGradient id="paint10_linear_20_248" x1="91.7917" y1="90.4336" x2="61.7791" y2="87.6985" gradientUnits="userSpaceOnUse">
<stop offset="0.36" stop-color="#3B2314"/>
<stop offset="0.77" stop-color="#050000"/>
</linearGradient>
<linearGradient id="paint11_linear_20_248" x1="98.3551" y1="147.005" x2="101.497" y2="140.602" gradientUnits="userSpaceOnUse">
<stop stop-color="#FDCB95"/>
<stop offset="0.17" stop-color="#F5BA8D"/>
</linearGradient>
<radialGradient id="paint12_radial_20_248" cx="0" cy="0" r="1" gradientUnits="userSpaceOnUse" gradientTransform="translate(153.208 218.64) rotate(-4.74273) scale(22.2478 19.6634)">
<stop stop-color="#F9D896"/>
<stop offset="1" stop-color="#FDCB95"/>
</radialGradient>
<linearGradient id="paint13_linear_20_248" x1="39.2979" y1="49.1194" x2="178.951" y2="59.7854" gradientUnits="userSpaceOnUse">
<stop offset="0.42" stop-color="#A85E20"/>
<stop offset="0.94" stop-color="#592A0E"/>
</linearGradient>
<linearGradient id="paint14_linear_20_248" x1="149.438" y1="44.0358" x2="108.665" y2="34.4368" gradientUnits="userSpaceOnUse">
<stop offset="0.41" stop-color="#935423"/>
<stop offset="1" stop-color="#B26628"/>
</linearGradient>
<linearGradient id="paint15_linear_20_248" x1="133.864" y1="51.9133" x2="178.384" y2="51.9133" gradientUnits="userSpaceOnUse">
<stop offset="0.41" stop-color="#844D20"/>
<stop offset="1" stop-color="#663617"/>
</linearGradient>
</defs>
</svg>
