<svg width="26" height="26" viewBox="0 0 26 26" fill="none" xmlns="http://www.w3.org/2000/svg">
<path d="M16.8887 5.91476H21.5546L20.525 6.96155C20.2823 7.20671 20.146 7.53835 20.146 7.88403C20.146 8.22971 20.2823 8.56135 20.525 8.80651C20.7692 9.05022 21.0995 9.18701 21.4438 9.18701C21.7882 9.18701 22.1185 9.05022 22.3627 8.80651L25.621 5.5353C25.8637 5.29014 26 4.9585 26 4.61282C26 4.26714 25.8637 3.9355 25.621 3.69034L22.3627 0.41913C22.1134 0.204766 21.7926 0.0927516 21.4646 0.105472C21.1366 0.118192 20.8255 0.254709 20.5933 0.487743C20.3612 0.720777 20.2252 1.03316 20.2126 1.36248C20.1999 1.69179 20.3115 2.01378 20.525 2.26409L21.5546 3.2978H16.8887C16.5431 3.2978 16.2115 3.43565 15.9671 3.68104C15.7227 3.92643 15.5854 4.25925 15.5854 4.60628C15.5854 4.95331 15.7227 5.28613 15.9671 5.53152C16.2115 5.77691 16.5431 5.91476 16.8887 5.91476ZM22.7537 14.3414C22.467 14.3414 22.1672 14.2498 21.8805 14.1844C21.2998 14.0559 20.7292 13.8854 20.1731 13.6741C19.5685 13.4532 18.9039 13.4647 18.3071 13.7063C17.7104 13.9478 17.2238 14.4024 16.9409 14.9826L16.6541 15.5714C15.3847 14.8624 14.2182 13.9819 13.1873 12.9544C12.1639 11.9194 11.2868 10.7483 10.5806 9.47384L11.128 9.10746C11.7059 8.82341 12.1587 8.33484 12.3993 7.73577C12.6399 7.13669 12.6513 6.46945 12.4313 5.86242C12.2244 5.30294 12.0546 4.73032 11.923 4.14831C11.8579 3.86044 11.8057 3.55949 11.7666 3.25854C11.6084 2.33687 11.1275 1.50222 10.4107 0.904891C9.69386 0.307564 8.78815 -0.0131815 7.85667 0.000415186H3.94669C3.385 -0.00487965 2.82876 0.111392 2.31585 0.341315C1.80294 0.571238 1.34539 0.909414 0.974364 1.33282C0.603333 1.75623 0.327528 2.25493 0.165725 2.79496C0.00392131 3.335 -0.0400818 3.9037 0.036711 4.46235C0.731043 9.94409 3.22468 15.0374 7.12374 18.9376C11.0228 22.8379 16.105 25.3229 21.5677 26H22.0629C23.024 26.0014 23.952 25.6474 24.6696 25.0055C25.0819 24.6353 25.4113 24.1814 25.6359 23.6739C25.8606 23.1664 25.9755 22.6168 25.9729 22.0615V18.136C25.9569 17.2271 25.6273 16.352 25.0402 15.6599C24.4531 14.9679 23.6449 14.5019 22.7537 14.3414ZM23.4053 22.1923C23.4051 22.3781 23.3655 22.5617 23.2891 22.7309C23.2127 22.9001 23.1012 23.0511 22.9622 23.1737C22.8166 23.2999 22.6463 23.3942 22.4623 23.4505C22.2782 23.5069 22.0845 23.524 21.8935 23.5008C17.0124 22.8725 12.4786 20.6306 9.00714 17.1289C5.5357 13.6271 3.32423 9.06473 2.72156 4.16139C2.70082 3.96973 2.719 3.77582 2.775 3.59141C2.831 3.40699 2.92367 3.23589 3.04739 3.08844C3.16953 2.94886 3.31987 2.837 3.48841 2.76029C3.65696 2.68358 3.83984 2.64379 4.02489 2.64355H7.93487C8.23795 2.63678 8.53391 2.7363 8.77179 2.92497C9.00967 3.11364 9.1746 3.37967 9.23819 3.67726C9.29033 4.03491 9.35549 4.3882 9.43369 4.73713C9.58425 5.42689 9.78463 6.10473 10.0332 6.76528L8.20857 7.61579C8.05255 7.68766 7.91222 7.78975 7.79562 7.91621C7.67902 8.04268 7.58844 8.19102 7.5291 8.35272C7.46976 8.51443 7.44282 8.6863 7.44983 8.85849C7.45684 9.03067 7.49765 9.19977 7.56994 9.35608C9.44568 13.3898 12.6754 16.6323 16.6932 18.5155C17.0105 18.6463 17.3664 18.6463 17.6837 18.5155C17.8463 18.4571 17.9957 18.3669 18.1232 18.2501C18.2507 18.1333 18.3539 17.9922 18.4266 17.8351L19.2347 16.0032C19.9085 16.2451 20.5961 16.4461 21.294 16.6051C21.6415 16.6836 21.9934 16.749 22.3497 16.8014C22.6461 16.8652 22.911 17.0308 23.099 17.2696C23.2869 17.5084 23.386 17.8056 23.3793 18.1098L23.4053 22.1923Z" fill="#FFA40B"/>
</svg>
