<svg width="360" height="134" viewBox="0 0 360 134" fill="none" xmlns="http://www.w3.org/2000/svg">
<circle cx="4" cy="4" r="4" fill="#C1C8CD"/>
<circle cx="36" cy="4" r="4" fill="#C1C8CD"/>
<circle cx="68" cy="4" r="4" fill="#C1C8CD"/>
<circle cx="100" cy="4" r="4" fill="#C1C8CD"/>
<circle cx="132" cy="4" r="4" fill="#C1C8CD"/>
<circle cx="164" cy="4" r="4" fill="#C1C8CD"/>
<circle cx="4" cy="46" r="4" fill="#C1C8CD"/>
<circle cx="36" cy="46" r="4" fill="#C1C8CD"/>
<circle cx="68" cy="46" r="4" fill="#C1C8CD"/>
<circle cx="100" cy="46" r="4" fill="#C1C8CD"/>
<circle cx="132" cy="46" r="4" fill="#C1C8CD"/>
<circle cx="164" cy="46" r="4" fill="#C1C8CD"/>
<circle cx="196" cy="46" r="4" fill="#C1C8CD"/>
<circle cx="228" cy="46" r="4" fill="#C1C8CD"/>
<circle cx="260" cy="46" r="4" fill="#C1C8CD"/>
<circle cx="4" cy="88" r="4" fill="#C1C8CD"/>
<circle cx="36" cy="88" r="4" fill="#C1C8CD"/>
<circle cx="68" cy="88" r="4" fill="#C1C8CD"/>
<circle cx="100" cy="88" r="4" fill="#C1C8CD"/>
<circle cx="132" cy="88" r="4" fill="#C1C8CD"/>
<circle cx="164" cy="88" r="4" fill="#C1C8CD"/>
<circle cx="196" cy="88" r="4" fill="#C1C8CD"/>
<circle cx="228" cy="88" r="4" fill="#C1C8CD"/>
<circle cx="260" cy="88" r="4" fill="#C1C8CD"/>
<circle cx="4" cy="130" r="4" fill="#C1C8CD"/>
<circle cx="36" cy="130" r="4" fill="#C1C8CD"/>
<circle cx="68" cy="130" r="4" fill="#C1C8CD"/>
<circle cx="100" cy="130" r="4" fill="#C1C8CD"/>
<circle cx="132" cy="130" r="4" fill="#C1C8CD"/>
<circle cx="164" cy="130" r="4" fill="#C1C8CD"/>
<circle cx="196" cy="130" r="4" fill="#C1C8CD"/>
<circle cx="228" cy="130" r="4" fill="#C1C8CD"/>
<circle cx="260" cy="130" r="4" fill="#C1C8CD"/>
<circle cx="292" cy="46" r="4" fill="#C1C8CD"/>
<circle cx="324" cy="46" r="4" fill="#C1C8CD"/>
<circle cx="356" cy="46" r="4" fill="#C1C8CD"/>
<circle cx="196" cy="4" r="4" fill="#C1C8CD"/>
<circle cx="228" cy="4" r="4" fill="#C1C8CD"/>
<circle cx="260" cy="4" r="4" fill="#C1C8CD"/>
<circle cx="292" cy="4" r="4" fill="#C1C8CD"/>
<circle cx="324" cy="4" r="4" fill="#C1C8CD"/>
<circle cx="356" cy="4" r="4" fill="#C1C8CD"/>
</svg>
