<svg width="360" height="134" viewBox="0 0 360 134" fill="none" xmlns="http://www.w3.org/2000/svg">
<circle cx="4" cy="4" r="4" transform="matrix(-1 0 0 1 360 0)" fill="#C1C8CD"/>
<circle cx="4" cy="4" r="4" transform="matrix(-1 0 0 1 328 0)" fill="#C1C8CD"/>
<circle cx="4" cy="4" r="4" transform="matrix(-1 0 0 1 296 0)" fill="#C1C8CD"/>
<circle cx="4" cy="4" r="4" transform="matrix(-1 0 0 1 264 0)" fill="#C1C8CD"/>
<circle cx="4" cy="4" r="4" transform="matrix(-1 0 0 1 232 0)" fill="#C1C8CD"/>
<circle cx="4" cy="4" r="4" transform="matrix(-1 0 0 1 200 0)" fill="#C1C8CD"/>
<circle cx="4" cy="4" r="4" transform="matrix(-1 0 0 1 360 42)" fill="#C1C8CD"/>
<circle cx="4" cy="4" r="4" transform="matrix(-1 0 0 1 328 42)" fill="#C1C8CD"/>
<circle cx="4" cy="4" r="4" transform="matrix(-1 0 0 1 296 42)" fill="#C1C8CD"/>
<circle cx="4" cy="4" r="4" transform="matrix(-1 0 0 1 264 42)" fill="#C1C8CD"/>
<circle cx="4" cy="4" r="4" transform="matrix(-1 0 0 1 232 42)" fill="#C1C8CD"/>
<circle cx="4" cy="4" r="4" transform="matrix(-1 0 0 1 200 42)" fill="#C1C8CD"/>
<circle cx="4" cy="4" r="4" transform="matrix(-1 0 0 1 168 42)" fill="#C1C8CD"/>
<circle cx="4" cy="4" r="4" transform="matrix(-1 0 0 1 136 42)" fill="#C1C8CD"/>
<circle cx="4" cy="4" r="4" transform="matrix(-1 0 0 1 104 42)" fill="#C1C8CD"/>
<circle cx="4" cy="4" r="4" transform="matrix(-1 0 0 1 360 84)" fill="#C1C8CD"/>
<circle cx="4" cy="4" r="4" transform="matrix(-1 0 0 1 328 84)" fill="#C1C8CD"/>
<circle cx="4" cy="4" r="4" transform="matrix(-1 0 0 1 296 84)" fill="#C1C8CD"/>
<circle cx="4" cy="4" r="4" transform="matrix(-1 0 0 1 264 84)" fill="#C1C8CD"/>
<circle cx="4" cy="4" r="4" transform="matrix(-1 0 0 1 232 84)" fill="#C1C8CD"/>
<circle cx="4" cy="4" r="4" transform="matrix(-1 0 0 1 200 84)" fill="#C1C8CD"/>
<circle cx="4" cy="4" r="4" transform="matrix(-1 0 0 1 168 84)" fill="#C1C8CD"/>
<circle cx="4" cy="4" r="4" transform="matrix(-1 0 0 1 136 84)" fill="#C1C8CD"/>
<circle cx="4" cy="4" r="4" transform="matrix(-1 0 0 1 104 84)" fill="#C1C8CD"/>
<circle cx="4" cy="4" r="4" transform="matrix(-1 0 0 1 360 126)" fill="#C1C8CD"/>
<circle cx="4" cy="4" r="4" transform="matrix(-1 0 0 1 328 126)" fill="#C1C8CD"/>
<circle cx="4" cy="4" r="4" transform="matrix(-1 0 0 1 296 126)" fill="#C1C8CD"/>
<circle cx="4" cy="4" r="4" transform="matrix(-1 0 0 1 264 126)" fill="#C1C8CD"/>
<circle cx="4" cy="4" r="4" transform="matrix(-1 0 0 1 232 126)" fill="#C1C8CD"/>
<circle cx="4" cy="4" r="4" transform="matrix(-1 0 0 1 200 126)" fill="#C1C8CD"/>
<circle cx="4" cy="4" r="4" transform="matrix(-1 0 0 1 168 126)" fill="#C1C8CD"/>
<circle cx="4" cy="4" r="4" transform="matrix(-1 0 0 1 136 126)" fill="#C1C8CD"/>
<circle cx="4" cy="4" r="4" transform="matrix(-1 0 0 1 104 126)" fill="#C1C8CD"/>
<circle cx="4" cy="4" r="4" transform="matrix(-1 0 0 1 72 42)" fill="#C1C8CD"/>
<circle cx="4" cy="4" r="4" transform="matrix(-1 0 0 1 40 42)" fill="#C1C8CD"/>
<circle cx="4" cy="4" r="4" transform="matrix(-1 0 0 1 8 42)" fill="#C1C8CD"/>
<circle cx="4" cy="4" r="4" transform="matrix(-1 0 0 1 168 0)" fill="#C1C8CD"/>
<circle cx="4" cy="4" r="4" transform="matrix(-1 0 0 1 136 0)" fill="#C1C8CD"/>
<circle cx="4" cy="4" r="4" transform="matrix(-1 0 0 1 104 0)" fill="#C1C8CD"/>
<circle cx="4" cy="4" r="4" transform="matrix(-1 0 0 1 72 0)" fill="#C1C8CD"/>
<circle cx="4" cy="4" r="4" transform="matrix(-1 0 0 1 40 0)" fill="#C1C8CD"/>
<circle cx="4" cy="4" r="4" transform="matrix(-1 0 0 1 8 0)" fill="#C1C8CD"/>
</svg>
