<svg width="26" height="26" viewBox="0 0 26 26" fill="none" xmlns="http://www.w3.org/2000/svg">
<path d="M16.6387 23.5636C18.8304 22.8816 21.6666 20.8591 21.6666 16.2501C21.6666 11.243 16.1892 5.8651 12.5371 3.08304C11.9341 2.62366 11.067 2.95444 10.7857 3.65838C9.00279 8.11945 4.33331 12.8414 4.33331 16.2501C4.33331 19.6158 6.76603 22.0013 8.75486 23.1525" stroke="#0074FF" stroke-width="1.5"/>
<path opacity="0.5" d="M16.6387 23.5635C16.1713 23.7089 15.8642 23.1641 16.1438 22.7623C17.0975 21.3916 18.2001 19.3009 18.2001 17.3337C18.2001 15.2206 16.419 12.7258 15.0282 11.187C14.7103 10.8352 14.1556 11.068 14.1383 11.5419C14.0809 13.1118 13.8331 15.2123 12.7648 16.8585C12.5929 17.1235 12.2278 17.1454 12.0319 16.8977C11.6981 16.4755 11.3643 15.954 11.0306 15.5421C10.8508 15.3202 10.5258 15.3171 10.3184 15.5135C9.50986 16.2791 8.37787 17.473 8.37787 18.9587C8.37787 20.0304 8.88854 21.3639 9.41502 22.3968C9.65411 22.8659 9.21056 23.4162 8.7549 23.1524" stroke="#0074FF" stroke-width="1.5"/>
</svg>
