<svg width="24" height="24" viewBox="0 0 24 24" fill="none" xmlns="http://www.w3.org/2000/svg">
<path d="M12.7001 19.3001L19.3001 12.7001C19.4001 12.6001 19.4711 12.4917 19.5131 12.3751C19.5551 12.2584 19.5757 12.1334 19.5751 12.0001C19.5751 11.8667 19.5541 11.7417 19.5121 11.6251C19.4701 11.5084 19.3994 11.4001 19.3001 11.3001L12.7001 4.70006C12.5167 4.51673 12.2874 4.42106 12.0121 4.41306C11.7367 4.40506 11.4994 4.50073 11.3001 4.70006C11.1001 4.88339 10.9957 5.11273 10.9871 5.38806C10.9784 5.66339 11.0744 5.90073 11.2751 6.10006L16.1751 11.0001H5.00006C4.71672 11.0001 4.47906 11.0961 4.28706 11.2881C4.09506 11.4801 3.99939 11.7174 4.00006 12.0001C4.00006 12.2834 4.09572 12.5211 4.28706 12.7131C4.47839 12.9051 4.71606 13.0007 5.00006 13.0001H16.1751L11.2751 17.9001C11.0917 18.0834 10.9957 18.3167 10.9871 18.6001C10.9784 18.8834 11.0744 19.1167 11.2751 19.3001C11.4584 19.5001 11.6917 19.6001 11.9751 19.6001C12.2584 19.6001 12.5001 19.5001 12.7001 19.3001Z" fill="white"/>
</svg>
