<svg width="48" height="48" viewBox="0 0 48 48" fill="none" xmlns="http://www.w3.org/2000/svg">
<path d="M30 30H18V28H30V30ZM30 32H18V34H30V32ZM30 36H18V38H30V36ZM46 27C46 29.5 45.12 31.62 43.38 33.38C41.62 35.12 39.5 36 37 36H36V44H12V35.9C9.4 35.7 7.14 34.72 5.22 32.86C3.08 30.76 2 28.18 2 25.16C2 22.56 2.78 20.24 4.34 18.2C5.9 16.16 8 14.86 10.5 14.3C11.34 11.24 13 8.76 15.5 6.86C18 4.96 20.84 4 24 4C27.9 4 31.2 5.36 33.92 8.08C36.64 10.8 38 14.1 38 18C40.3 18.26 42.2 19.26 43.72 21C45.24 22.7 46 24.7 46 27ZM12 31.9V22H34V18C34 15.24 33 12.88 31.08 10.92C29.12 9 26.76 8 24 8C21.24 8 18.88 9 16.92 10.92C15 12.88 14 15.24 14 18H13C11.06 18 9.42 18.68 8.06 20.06C6.68 21.42 6 23.06 6 25C6 26.94 6.68 28.58 8.06 30C9.18 31.08 10.5 31.7 12 31.9ZM32 26H16V40H32V26ZM42 27C42 25.6 41.52 24.42 40.54 23.46C39.56 22.5 38.4 22 37 22H36V32H37C38.4 32 39.58 31.52 40.54 30.56C41.5 29.6 42 28.4 42 27Z" fill="#EA7850"/>
</svg>
