<svg width="38" height="38" viewBox="0 0 38 38" fill="none" xmlns="http://www.w3.org/2000/svg">
<path d="M35.5618 9.50004C34.3426 10.0542 33.0285 10.4184 31.6668 10.5925C33.0601 9.75337 34.1368 8.42337 34.6435 6.82421C33.3293 7.61587 31.8726 8.17004 30.3368 8.48671C29.086 7.12504 27.3285 6.33337 25.3335 6.33337C21.6126 6.33337 18.5726 9.37337 18.5726 13.1259C18.5726 13.6642 18.636 14.1867 18.7468 14.6775C13.1101 14.3925 8.09098 11.685 4.75014 7.58421C4.16431 8.58171 3.83181 9.75337 3.83181 10.9884C3.83181 13.3475 5.01931 15.4375 6.85598 16.625C5.73181 16.625 4.68681 16.3084 3.76848 15.8334V15.8809C3.76848 19.1742 6.11181 21.9292 9.21514 22.5467C8.21879 22.8194 7.17279 22.8573 6.15931 22.6575C6.58935 24.0073 7.43158 25.1884 8.56759 26.0347C9.7036 26.881 11.0763 27.3501 12.4926 27.3759C10.0917 29.2766 7.11564 30.304 4.05348 30.2892C3.51514 30.2892 2.97681 30.2575 2.43848 30.1942C5.44681 32.1259 9.02514 33.25 12.8568 33.25C25.3335 33.25 32.1893 22.895 32.1893 13.9175C32.1893 13.6167 32.1893 13.3317 32.1735 13.0309C33.5035 12.0809 34.6435 10.8775 35.5618 9.50004Z" fill="white"/>
</svg>
