<svg width="38" height="38" viewBox="0 0 38 38" fill="none" xmlns="http://www.w3.org/2000/svg">
<path d="M35.5616 9.50004C34.3424 10.0542 33.0282 10.4184 31.6666 10.5925C33.0599 9.75337 34.1366 8.42337 34.6432 6.82421C33.3291 7.61587 31.8724 8.17004 30.3366 8.48671C29.0857 7.12504 27.3282 6.33337 25.3332 6.33337C21.6124 6.33337 18.5724 9.37337 18.5724 13.1259C18.5724 13.6642 18.6357 14.1867 18.7466 14.6775C13.1099 14.3925 8.09073 11.685 4.7499 7.58421C4.16407 8.58171 3.83157 9.75337 3.83157 10.9884C3.83157 13.3475 5.01907 15.4375 6.85573 16.625C5.73157 16.625 4.68657 16.3084 3.76823 15.8334V15.8809C3.76823 19.1742 6.11157 21.9292 9.2149 22.5467C8.21855 22.8194 7.17255 22.8573 6.15907 22.6575C6.58911 24.0073 7.43133 25.1884 8.56734 26.0347C9.70335 26.881 11.076 27.3501 12.4924 27.3759C10.0915 29.2766 7.11539 30.304 4.05323 30.2892C3.5149 30.2892 2.97657 30.2575 2.43823 30.1942C5.44657 32.1259 9.0249 33.25 12.8566 33.25C25.3332 33.25 32.1891 22.895 32.1891 13.9175C32.1891 13.6167 32.1891 13.3317 32.1732 13.0309C33.5032 12.0809 34.6432 10.8775 35.5616 9.50004Z" fill="white"/>
</svg>
