<svg width="48" height="48" viewBox="0 0 48 48" fill="none" xmlns="http://www.w3.org/2000/svg">
<g clip-path="url(#clip0_20_369)">
<path fill-rule="evenodd" clip-rule="evenodd" d="M10 8C10 6.93913 10.4214 5.92172 11.1716 5.17157C11.9217 4.42143 12.9391 4 14 4H34C35.0609 4 36.0783 4.42143 36.8284 5.17157C37.5786 5.92172 38 6.93913 38 8V11.72C37.9998 13.3663 37.5932 14.9871 36.8162 16.4385C36.0392 17.8899 34.9159 19.127 33.546 20.04L27.606 24L33.546 27.96C34.9159 28.873 36.0392 30.1101 36.8162 31.5615C37.5932 33.0129 37.9998 34.6337 38 36.28V40C38 41.0609 37.5786 42.0783 36.8284 42.8284C36.0783 43.5786 35.0609 44 34 44H14C12.9391 44 11.9217 43.5786 11.1716 42.8284C10.4214 42.0783 10 41.0609 10 40V36.28C9.99997 34.6339 10.4063 33.0132 11.1829 31.5619C11.9596 30.1105 13.0825 28.8733 14.452 27.96L20.394 24L14.454 20.04C13.0841 19.127 11.9608 17.8899 11.1838 16.4385C10.4068 14.9871 10.0002 13.3663 10 11.72V8Z" fill="white"/>
</g>
<defs>
<clipPath id="clip0_20_369">
<rect width="48" height="48" fill="white"/>
</clipPath>
</defs>
</svg>
