<svg width="48" height="48" viewBox="0 0 48 48" fill="none" xmlns="http://www.w3.org/2000/svg">
<g clip-path="url(#clip0_20_518)">
<path fill-rule="evenodd" clip-rule="evenodd" d="M21 8.00002C17.5522 8.00002 14.2456 9.36966 11.8076 11.8076C9.36964 14.2456 8 17.5522 8 21C8 24.4478 9.36964 27.7544 11.8076 30.1924C14.2456 32.6304 17.5522 34 21 34C24.4478 34 27.7544 32.6304 30.1924 30.1924C32.6304 27.7544 34 24.4478 34 21C34 17.5522 32.6304 14.2456 30.1924 11.8076C27.7544 9.36966 24.4478 8.00002 21 8.00002ZM4 21C4.00023 18.2892 4.64873 15.6177 5.89139 13.2085C7.13405 10.7993 8.93483 8.7222 11.1435 7.15049C13.3522 5.57878 15.9047 4.55804 18.5881 4.17344C21.2715 3.78883 24.0079 4.05152 26.5692 4.93958C29.1304 5.82763 31.4421 7.31531 33.3115 9.27849C35.1808 11.2417 36.5536 13.6234 37.3152 16.225C38.0768 18.8267 38.2053 21.5727 37.6898 24.2341C37.1744 26.8954 36.0299 29.3949 34.352 31.524L41.656 38.828C42.0203 39.2052 42.2219 39.7104 42.2173 40.2348C42.2128 40.7592 42.0025 41.2608 41.6316 41.6317C41.2608 42.0025 40.7592 42.2128 40.2348 42.2174C39.7104 42.2219 39.2052 42.0203 38.828 41.656L31.524 34.352C29.0172 36.328 26.0048 37.5583 22.8315 37.9022C19.6581 38.2461 16.452 37.6896 13.5802 36.2965C10.7083 34.9033 8.28671 32.7298 6.59246 30.0246C4.89821 27.3195 3.99979 24.1919 4 21ZM19 14C19 13.4696 19.2107 12.9609 19.5858 12.5858C19.9609 12.2107 20.4696 12 21 12C23.3869 12 25.6761 12.9482 27.364 14.6361C29.0518 16.3239 30 18.6131 30 21C30 21.5305 29.7893 22.0392 29.4142 22.4142C29.0391 22.7893 28.5304 23 28 23C27.4696 23 26.9609 22.7893 26.5858 22.4142C26.2107 22.0392 26 21.5305 26 21C26 19.6739 25.4732 18.4022 24.5355 17.4645C23.5979 16.5268 22.3261 16 21 16C20.4696 16 19.9609 15.7893 19.5858 15.4142C19.2107 15.0392 19 14.5305 19 14Z" fill="#EA7850"/>
</g>
<defs>
<clipPath id="clip0_20_518">
<rect width="48" height="48" fill="white"/>
</clipPath>
</defs>
</svg>
