<svg width="25" height="24" viewBox="0 0 25 24" fill="none" xmlns="http://www.w3.org/2000/svg">
<path d="M15.8617 9.51572C16.0814 10.3159 15.8163 11.0805 15.2696 11.2234C14.7228 11.3664 14.1014 10.8336 13.8816 10.0334C13.6618 9.23316 13.9269 8.4686 14.4737 8.32565C15.0205 8.18271 15.6419 8.71552 15.8617 9.51572Z" fill="#FA4D04"/>
<path d="M9.92161 11.0687C10.1414 11.8689 9.87628 12.6335 9.3295 12.7764C8.78271 12.9194 8.16131 12.3865 7.94154 11.5863C7.72178 10.7861 7.98688 10.0216 8.53366 9.87863C9.08044 9.73569 9.70185 10.2685 9.92161 11.0687Z" fill="#FA4D04"/>
<path fill-rule="evenodd" clip-rule="evenodd" d="M12.2996 2.75C7.06343 2.75 2.81869 6.89137 2.81869 12C2.81869 17.1086 7.06343 21.25 12.2996 21.25C17.5357 21.25 21.7805 17.1086 21.7805 12C21.7805 6.89137 17.5357 2.75 12.2996 2.75ZM1.28125 12C1.28125 6.06294 6.21432 1.25 12.2996 1.25C18.3848 1.25 23.3179 6.06294 23.3179 12C23.3179 17.9371 18.3848 22.75 12.2996 22.75C6.21432 22.75 1.28125 17.9371 1.28125 12ZM17.6077 13.3409C17.903 13.6385 17.8951 14.1133 17.5901 14.4014C17.4158 14.566 17.2325 14.7246 17.0407 14.8766L17.2645 15.3216C17.8314 16.4482 17.3438 17.8094 16.1811 18.3464C15.0415 18.8728 13.68 18.4085 13.1244 17.3043L12.8444 16.7477C11.4916 16.998 10.1566 16.9561 8.94822 16.6606C8.53641 16.5599 8.28624 16.1526 8.38946 15.7508C8.49268 15.349 8.91019 15.1049 9.32201 15.2056C10.4805 15.4889 11.8109 15.4924 13.1616 15.1393C14.5122 14.7862 15.6626 14.1342 16.5207 13.3237C16.8258 13.0356 17.3124 13.0433 17.6077 13.3409ZM14.3544 16.345L14.5045 16.6433C14.6897 17.0114 15.1435 17.1661 15.5233 16.9907C15.9108 16.8117 16.0733 16.358 15.8844 15.9825L15.7544 15.7241C15.3147 15.9631 14.8467 16.1716 14.3544 16.345Z" fill="#FA4D04"/>
</svg>
