<svg width="14" height="14" viewBox="0 0 14 14" fill="none" xmlns="http://www.w3.org/2000/svg">
<g clip-path="url(#clip0_222_9173)">
<path fill-rule="evenodd" clip-rule="evenodd" d="M6.70817 1.60425C3.88922 1.60425 1.604 3.88946 1.604 6.70841C1.604 9.52737 3.88922 11.8126 6.70817 11.8126C9.52712 11.8126 11.8123 9.52737 11.8123 6.70841C11.8123 3.88946 9.52712 1.60425 6.70817 1.60425ZM0.729004 6.70841C0.729004 3.40621 3.40597 0.729248 6.70817 0.729248C10.0104 0.729248 12.6873 3.40621 12.6873 6.70841C12.6873 8.20205 12.1397 9.56776 11.2342 10.6157L13.1425 12.5241C13.3134 12.6949 13.3134 12.9719 13.1425 13.1428C12.9717 13.3136 12.6947 13.3136 12.5238 13.1428L10.6155 11.2344C9.56752 12.1399 8.2018 12.6876 6.70817 12.6876C3.40597 12.6876 0.729004 10.0106 0.729004 6.70841Z" fill="#425066"/>
</g>
<defs>
<clipPath id="clip0_222_9173">
<rect width="14" height="14" fill="white"/>
</clipPath>
</defs>
</svg>
