<svg width="14" height="14" viewBox="0 0 14 14" fill="none" xmlns="http://www.w3.org/2000/svg">
<g clip-path="url(#clip0_219_3950)">
<path fill-rule="evenodd" clip-rule="evenodd" d="M6.70829 1.60425C3.88934 1.60425 1.60413 3.88946 1.60413 6.70841C1.60413 9.52737 3.88934 11.8126 6.70829 11.8126C9.52725 11.8126 11.8125 9.52737 11.8125 6.70841C11.8125 3.88946 9.52725 1.60425 6.70829 1.60425ZM0.729126 6.70841C0.729126 3.40621 3.40609 0.729248 6.70829 0.729248C10.0105 0.729248 12.6875 3.40621 12.6875 6.70841C12.6875 8.20205 12.1398 9.56776 11.2343 10.6157L13.1427 12.5241C13.3135 12.6949 13.3135 12.9719 13.1427 13.1428C12.9718 13.3136 12.6948 13.3136 12.5239 13.1428L10.6156 11.2344C9.56764 12.1399 8.20192 12.6876 6.70829 12.6876C3.40609 12.6876 0.729126 10.0106 0.729126 6.70841Z" fill="#425066"/>
</g>
<defs>
<clipPath id="clip0_219_3950">
<rect width="14" height="14" fill="white"/>
</clipPath>
</defs>
</svg>
