<svg width="48" height="48" viewBox="0 0 48 48" fill="none" xmlns="http://www.w3.org/2000/svg">
<path d="M24.0001 4.875C20.6651 4.87554 17.3883 5.74813 14.4947 7.40617C11.6012 9.06421 9.19147 11.4501 7.50473 14.327C5.81799 17.2039 4.91286 20.4719 4.87915 23.8067C4.84544 27.1414 5.68432 30.4271 7.31256 33.3375L5.66256 39.0938C5.52782 39.5443 5.51748 40.0228 5.63263 40.4787C5.74778 40.9347 5.98413 41.3509 6.31663 41.6834C6.64913 42.0159 7.0654 42.2523 7.52131 42.3674C7.97722 42.4826 8.45579 42.4722 8.90631 42.3375L14.6626 40.6875C17.2131 42.1155 20.0571 42.9399 22.976 43.0973C25.8948 43.2546 28.8109 42.7408 31.5003 41.5953C34.1896 40.4498 36.5805 38.7031 38.4895 36.4894C40.3984 34.2756 41.7744 31.6538 42.5119 28.8252C43.2494 25.9966 43.3287 23.0367 42.7438 20.1727C42.1588 17.3087 40.9251 14.6169 39.1375 12.3041C37.3498 9.99134 35.0558 8.1191 32.4317 6.83123C29.8076 5.54336 26.9232 4.87415 24.0001 4.875ZM24.0001 40.875C20.97 40.8834 17.9949 40.0667 15.3938 38.5125C15.2148 38.417 15.0155 38.3655 14.8126 38.3625C14.7111 38.355 14.6091 38.3678 14.5126 38.4L8.28756 40.1813C8.2224 40.2013 8.15301 40.2032 8.08684 40.1868C8.02068 40.1704 7.96024 40.1362 7.91204 40.088C7.86383 40.0398 7.82968 39.9794 7.81325 39.9132C7.79682 39.847 7.79874 39.7777 7.81881 39.7125L9.60006 33.4875C9.64211 33.3407 9.65382 33.1868 9.63448 33.0353C9.61514 32.8838 9.56515 32.7378 9.48756 32.6062C7.58869 29.4036 6.80233 25.6629 7.25094 21.9667C7.69956 18.2706 9.35797 14.8266 11.9679 12.1712C14.5777 9.51578 17.9925 7.79806 21.6804 7.28561C25.3682 6.77315 29.122 7.49472 32.357 9.33792C35.592 11.1811 38.1266 14.0425 39.566 17.4762C41.0054 20.91 41.2687 24.7234 40.315 28.3225C39.3613 31.9215 37.2441 35.1041 34.2932 37.3745C31.3423 39.6449 27.7233 40.8756 24.0001 40.875ZM16.8751 24C16.8751 24.3708 16.7651 24.7334 16.5591 25.0417C16.353 25.35 16.0602 25.5904 15.7176 25.7323C15.375 25.8742 14.998 25.9113 14.6343 25.839C14.2705 25.7666 13.9365 25.5881 13.6742 25.3258C13.412 25.0636 13.2334 24.7295 13.1611 24.3658C13.0887 24.0021 13.1259 23.6251 13.2678 23.2825C13.4097 22.9399 13.65 22.647 13.9584 22.441C14.2667 22.235 14.6292 22.125 15.0001 22.125C15.4973 22.125 15.9743 22.3225 16.3259 22.6742C16.6775 23.0258 16.8751 23.5027 16.8751 24ZM25.8751 24C25.8751 24.3708 25.7651 24.7334 25.5591 25.0417C25.353 25.35 25.0602 25.5904 24.7176 25.7323C24.375 25.8742 23.998 25.9113 23.6343 25.839C23.2705 25.7666 22.9365 25.5881 22.6742 25.3258C22.412 25.0636 22.2334 24.7295 22.1611 24.3658C22.0887 24.0021 22.1259 23.6251 22.2678 23.2825C22.4097 22.9399 22.65 22.647 22.9584 22.441C23.2667 22.235 23.6292 22.125 24.0001 22.125C24.4973 22.125 24.9743 22.3225 25.3259 22.6742C25.6775 23.0258 25.8751 23.5027 25.8751 24ZM34.8751 24C34.8751 24.3708 34.7651 24.7334 34.5591 25.0417C34.353 25.35 34.0602 25.5904 33.7176 25.7323C33.375 25.8742 32.998 25.9113 32.6343 25.839C32.2705 25.7666 31.9365 25.5881 31.6742 25.3258C31.412 25.0636 31.2334 24.7295 31.1611 24.3658C31.0887 24.0021 31.1259 23.6251 31.2678 23.2825C31.4097 22.9399 31.65 22.647 31.9584 22.441C32.2667 22.235 32.6292 22.125 33.0001 22.125C33.4973 22.125 33.9743 22.3225 34.3259 22.6742C34.6775 23.0258 34.8751 23.5027 34.8751 24Z" fill="#EA7850"/>
</svg>
