<svg width="48" height="48" viewBox="0 0 48 48" fill="none" xmlns="http://www.w3.org/2000/svg">
<path d="M44.25 17.25C44.25 22.9875 40.9312 28.875 34.3875 34.7625C31.4161 37.4338 28.1807 39.7959 24.7312 41.8125C24.5072 41.9356 24.2557 42.0001 24 42.0001C23.7443 42.0001 23.4928 41.9356 23.2687 41.8125C22.4625 41.3625 3.75 30.7312 3.75 17.25C3.75 14.8888 4.49292 12.5875 5.87353 10.672C7.25413 8.75652 9.20243 7.32398 11.4424 6.57731C13.6824 5.83064 16.1006 5.8077 18.3544 6.51172C20.6082 7.21575 22.5833 8.61106 24 10.5C25.4167 8.61106 27.3918 7.21575 29.6456 6.51172C31.8994 5.8077 34.3176 5.83064 36.5576 6.57731C38.7976 7.32398 40.7459 8.75652 42.1265 10.672C43.5071 12.5875 44.25 14.8888 44.25 17.25Z" fill="white"/>
</svg>
