<svg width="48" height="48" viewBox="0 0 48 48" fill="none" xmlns="http://www.w3.org/2000/svg">
<g clip-path="url(#clip0_21_567)">
<path d="M45 4.4947L32.9895 4.49475V1.50525C32.9895 0.676499 32.3182 0.00524902 31.4895 0.00524902C30.6607 0.00524902 29.9895 0.676499 29.9895 1.50525V4.494H17.9895V1.50525C17.9895 0.676499 17.3183 0.00524902 16.4895 0.00524902C15.6608 0.00524902 14.9895 0.676499 14.9895 1.50525V4.494H3C1.34325 4.494 0 5.83725 0 7.494V44.994C0 46.6507 1.34325 47.994 3 47.994H45C46.6567 47.994 48 46.6507 48 44.994V7.494C48 5.83795 46.6567 4.4947 45 4.4947ZM45 44.994H3V7.494H14.9895V9.00525C14.9895 9.83395 15.6608 10.5052 16.4895 10.5052C17.3183 10.5052 17.9895 9.83395 17.9895 9.00525V7.49475H29.9895V9.006C29.9895 9.83475 30.6607 10.506 31.4895 10.506C32.3182 10.506 32.9895 9.83475 32.9895 9.006V7.49475H45V44.994ZM34.5 23.9947H37.5C38.328 23.9947 39 23.3227 39 22.4947V19.4947C39 18.6667 38.328 17.9947 37.5 17.9947H34.5C33.672 17.9947 33 18.6667 33 19.4947V22.4947C33 23.3227 33.672 23.9947 34.5 23.9947ZM34.5 35.994H37.5C38.328 35.994 39 35.3227 39 34.494V31.494C39 30.666 38.328 29.994 37.5 29.994H34.5C33.672 29.994 33 30.666 33 31.494V34.494C33 35.3235 33.672 35.994 34.5 35.994ZM25.5 29.994H22.5C21.672 29.994 21 30.666 21 31.494V34.494C21 35.3227 21.672 35.994 22.5 35.994H25.5C26.328 35.994 27 35.3227 27 34.494V31.494C27 30.6667 26.328 29.994 25.5 29.994ZM25.5 17.9947H22.5C21.672 17.9947 21 18.6667 21 19.4947V22.4947C21 23.3227 21.672 23.9947 22.5 23.9947H25.5C26.328 23.9947 27 23.3227 27 22.4947V19.4947C27 18.666 26.328 17.9947 25.5 17.9947ZM13.5 17.9947H10.5C9.672 17.9947 9 18.6667 9 19.4947V22.4947C9 23.3227 9.672 23.9947 10.5 23.9947H13.5C14.328 23.9947 15 23.3227 15 22.4947V19.4947C15 18.666 14.328 17.9947 13.5 17.9947ZM13.5 29.994H10.5C9.672 29.994 9 30.666 9 31.494V34.494C9 35.3227 9.672 35.994 10.5 35.994H13.5C14.328 35.994 15 35.3227 15 34.494V31.494C15 30.6667 14.328 29.994 13.5 29.994Z" fill="#EA7850"/>
</g>
<defs>
<clipPath id="clip0_21_567">
<rect width="48" height="48" fill="white"/>
</clipPath>
</defs>
</svg>
