<svg width="18" height="12" viewBox="0 0 18 12" fill="none" xmlns="http://www.w3.org/2000/svg">
<path d="M16.2008 0.933561L8.70385 9.64047L1.20685 0.933561C1.0729 0.777683 0.89309 0.690416 0.705849 0.690416C0.518609 0.690416 0.338796 0.777683 0.20485 0.933561C0.139993 1.00927 0.088468 1.09964 0.053293 1.19937C0.018118 1.29911 0 1.4062 0 1.51438C0 1.62256 0.018118 1.72965 0.053293 1.82938C0.088468 1.92912 0.139993 2.01949 0.20485 2.0952L8.18035 11.3597C8.32041 11.5223 8.50826 11.6134 8.70385 11.6134C8.89944 11.6134 9.08729 11.5223 9.22735 11.3597L17.2029 2.09698C17.2682 2.02122 17.3201 1.93063 17.3555 1.83056C17.391 1.7305 17.4092 1.62299 17.4092 1.51438C17.4092 1.40577 17.391 1.29826 17.3555 1.19819C17.3201 1.09813 17.2682 1.00754 17.2029 0.931773C17.0689 0.775895 16.8891 0.688629 16.7018 0.688629C16.5146 0.688629 16.3348 0.775895 16.2008 0.931773V0.933561Z" fill="#C4C4C4"/>
</svg>
