<svg width="15" height="6" viewBox="0 0 15 6" fill="none" xmlns="http://www.w3.org/2000/svg">
<path d="M14.2109 1.0694C14.1147 1.03112 14.0003 1.00074 13.8742 0.980013C13.7481 0.959282 13.6128 0.948608 13.4762 0.948608C13.3396 0.948608 13.2043 0.959282 13.0782 0.980013C12.9521 1.00074 12.8376 1.03112 12.7414 1.0694L5.03152 4.11568L1.79234 2.83347C1.69245 2.79539 1.57453 2.76545 1.44532 2.74536C1.31611 2.72527 1.17814 2.71542 1.03928 2.71636C0.900415 2.71731 0.763387 2.72904 0.636015 2.75089C0.508643 2.77273 0.393422 2.80426 0.296931 2.84367C0.20044 2.88309 0.124569 2.92962 0.0736484 2.9806C0.022728 3.03159 -0.00224419 3.08603 0.000158253 3.14082C0.0025607 3.19561 0.0322906 3.24968 0.0876502 3.29994C0.14301 3.3502 0.222915 3.39567 0.322803 3.43374L4.29676 5.0018C4.39296 5.04007 4.50742 5.07045 4.63353 5.09118C4.75964 5.11192 4.89491 5.12259 5.03152 5.12259C5.16814 5.12259 5.30341 5.11192 5.42952 5.09118C5.55563 5.07045 5.67009 5.04007 5.76629 5.0018L14.2109 1.66967C14.316 1.63143 14.3998 1.58502 14.4572 1.53337C14.5145 1.48171 14.5441 1.42593 14.5441 1.36953C14.5441 1.31314 14.5145 1.25736 14.4572 1.2057C14.3998 1.15405 14.316 1.10764 14.2109 1.0694Z" fill="white"/>
</svg>
