<svg width="15" height="15" viewBox="0 0 15 15" fill="none" xmlns="http://www.w3.org/2000/svg">
<path d="M14.2109 0.794249C14.1147 0.663386 14.0003 0.559516 13.8742 0.488633C13.7481 0.41775 13.6128 0.381256 13.4762 0.381256C13.3396 0.381256 13.2043 0.41775 13.0782 0.488633C12.9521 0.559516 12.8376 0.663386 12.7414 0.794249L5.03152 11.2099L1.79234 6.82582C1.69245 6.69564 1.57453 6.59328 1.44532 6.52458C1.31611 6.45588 1.17814 6.42219 1.03928 6.42544C0.900415 6.42868 0.763387 6.46879 0.636015 6.54347C0.508643 6.61816 0.393422 6.72596 0.296931 6.86073C0.20044 6.99549 0.124569 7.15457 0.0736484 7.3289C0.022728 7.50322 -0.00224419 7.68936 0.000158253 7.87671C0.0025607 8.06405 0.0322906 8.24892 0.0876502 8.42076C0.14301 8.5926 0.222915 8.74805 0.322803 8.87823L4.29676 14.2396C4.39296 14.3705 4.50742 14.4744 4.63353 14.5452C4.75964 14.6161 4.89491 14.6526 5.03152 14.6526C5.16814 14.6526 5.30341 14.6161 5.42952 14.5452C5.55563 14.4744 5.67009 14.3705 5.76629 14.2396L14.2109 2.84666C14.316 2.71592 14.3998 2.55724 14.4572 2.38062C14.5145 2.204 14.5441 2.01327 14.5441 1.82045C14.5441 1.62764 14.5145 1.43691 14.4572 1.26029C14.3998 1.08367 14.316 0.924992 14.2109 0.794249Z" fill="white"/>
</svg>
