<svg width="18" height="4" viewBox="0 0 18 4" fill="none" xmlns="http://www.w3.org/2000/svg">
<path d="M16.2008 0.651958L8.70385 3.19849L1.20685 0.651958C1.0729 0.606368 0.89309 0.580845 0.705849 0.580845C0.518609 0.580845 0.338796 0.606368 0.20485 0.651958C0.139993 0.674101 0.088468 0.700531 0.053293 0.7297C0.018118 0.75887 0 0.790192 0 0.821831C0 0.853471 0.018118 0.884793 0.053293 0.913962C0.088468 0.943131 0.139993 0.969561 0.20485 0.991704L8.18035 3.70131C8.32041 3.74889 8.50826 3.77551 8.70385 3.77551C8.89944 3.77551 9.08729 3.74889 9.22735 3.70131L17.2029 0.992227C17.2682 0.970067 17.3201 0.943572 17.3555 0.914307C17.391 0.885041 17.4092 0.853597 17.4092 0.821831C17.4092 0.790066 17.391 0.758622 17.3555 0.729356C17.3201 0.70009 17.2682 0.673595 17.2029 0.651435C17.0689 0.605845 16.8891 0.580322 16.7018 0.580322C16.5146 0.580322 16.3348 0.605845 16.2008 0.651435V0.651958Z" fill="#C4C4C4"/>
</svg>
